<?xml version="1.0" encoding="UTF-8" standalone="no"?>
<!-- Generator: Adobe Illustrator 19.0.0, SVG Export Plug-In . SVG Version: 6.00 Build 0)  -->

<svg
   xmlns:dc="http://purl.org/dc/elements/1.1/"
   xmlns:cc="http://creativecommons.org/ns#"
   xmlns:rdf="http://www.w3.org/1999/02/22-rdf-syntax-ns#"
   xmlns:svg="http://www.w3.org/2000/svg"
   xmlns="http://www.w3.org/2000/svg"
   xmlns:sodipodi="http://sodipodi.sourceforge.net/DTD/sodipodi-0.dtd"
   xmlns:inkscape="http://www.inkscape.org/namespaces/inkscape"
   version="1.1"
   id="Capa_1"
   x="0px"
   y="0px"
   viewBox="0 0 128 127.82038"
   xml:space="preserve"
   sodipodi:docname="object_network.svg"
   width="128"
   height="127.82038"
   inkscape:export-filename="/home/john/WWW/dolibarr/htdocs/custom/network/img/object_network.png"
   inkscape:export-xdpi="18"
   inkscape:export-ydpi="18"
   inkscape:version="0.92.5 (2060ec1f9f, 2020-04-08)"><metadata
   id="metadata39"><rdf:RDF><cc:Work
       rdf:about=""><dc:format>image/svg+xml</dc:format><dc:type
         rdf:resource="http://purl.org/dc/dcmitype/StillImage" /><dc:title></dc:title></cc:Work></rdf:RDF></metadata><defs
   id="defs37">
	

	

		
		
	
		
		
		
		
	</defs><sodipodi:namedview
   pagecolor="#505050"
   bordercolor="#ffffff"
   borderopacity="1"
   objecttolerance="10"
   gridtolerance="10"
   guidetolerance="10"
   inkscape:pageopacity="0"
   inkscape:pageshadow="2"
   inkscape:window-width="1920"
   inkscape:window-height="1011"
   id="namedview35"
   showgrid="false"
   inkscape:zoom="3.0341309"
   inkscape:cx="12.286583"
   inkscape:cy="69.380622"
   inkscape:window-x="1920"
   inkscape:window-y="0"
   inkscape:window-maximized="1"
   inkscape:current-layer="Capa_1"
   fit-margin-top="0"
   fit-margin-left="0"
   fit-margin-right="0"
   fit-margin-bottom="0" />

<g
   id="g4"
   transform="translate(-0.10092825,72.833242)">
</g>
<g
   id="g6"
   transform="translate(-0.10092825,72.833242)">
</g>
<g
   id="g8"
   transform="translate(-0.10092825,72.833242)">
</g>
<g
   id="g10"
   transform="translate(-0.10092825,72.833242)">
</g>
<g
   id="g12"
   transform="translate(-0.10092825,72.833242)">
</g>
<g
   id="g14"
   transform="translate(-0.10092825,72.833242)">
</g>
<g
   id="g16"
   transform="translate(-0.10092825,72.833242)">
</g>
<g
   id="g18"
   transform="translate(-0.10092825,72.833242)">
</g>
<g
   id="g20"
   transform="translate(-0.10092825,72.833242)">
</g>
<g
   id="g22"
   transform="translate(-0.10092825,72.833242)">
</g>
<g
   id="g24"
   transform="translate(-0.10092825,72.833242)">
</g>
<g
   id="g26"
   transform="translate(-0.10092825,72.833242)">
</g>
<g
   id="g28"
   transform="translate(-0.10092825,72.833242)">
</g>
<g
   id="g30"
   transform="translate(-0.10092825,72.833242)">
</g>
<g
   id="g32"
   transform="translate(-0.10092825,72.833242)">
</g>
<g
   id="g858"
   transform="matrix(0.25907547,0,0,0.25907547,0.34701981,-0.93885077)">
</g><g
   id="g860"
   transform="matrix(0.25907547,0,0,0.25907547,0.34701981,-0.93885077)">
</g><g
   id="g862"
   transform="matrix(0.25907547,0,0,0.25907547,0.34701981,-0.93885077)">
</g><g
   id="g864"
   transform="matrix(0.25907547,0,0,0.25907547,0.34701981,-0.93885077)">
</g><g
   id="g866"
   transform="matrix(0.25907547,0,0,0.25907547,0.34701981,-0.93885077)">
</g><g
   id="g868"
   transform="matrix(0.25907547,0,0,0.25907547,0.34701981,-0.93885077)">
</g><g
   id="g870"
   transform="matrix(0.25907547,0,0,0.25907547,0.34701981,-0.93885077)">
</g><g
   id="g872"
   transform="matrix(0.25907547,0,0,0.25907547,0.34701981,-0.93885077)">
</g><g
   id="g874"
   transform="matrix(0.25907547,0,0,0.25907547,0.34701981,-0.93885077)">
</g><g
   id="g876"
   transform="matrix(0.25907547,0,0,0.25907547,0.34701981,-0.93885077)">
</g><g
   id="g878"
   transform="matrix(0.25907547,0,0,0.25907547,0.34701981,-0.93885077)">
</g><g
   id="g880"
   transform="matrix(0.25907547,0,0,0.25907547,0.34701981,-0.93885077)">
</g><g
   id="g882"
   transform="matrix(0.25907547,0,0,0.25907547,0.34701981,-0.93885077)">
</g><g
   id="g884"
   transform="matrix(0.25907547,0,0,0.25907547,0.34701981,-0.93885077)">
</g><g
   id="g886"
   transform="matrix(0.25907547,0,0,0.25907547,0.34701981,-0.93885077)">
</g><g
   id="g999"
   transform="matrix(0.57274011,0,0,0.57274011,50.406708,45.301707)"
   style="fill:#cb4f24;fill-opacity:1"><path
     style="fill:#cb4f24;fill-opacity:1;stroke-width:0.57274014"
     d="m 169.82422,61.490234 c -2.58936,0 -4.49742,0.680127 -5.67383,2.021485 -1.35625,1.546971 -1.23129,3.423274 -1.19922,3.738281 v 3.046875 c -0.36655,0.417528 -0.57226,0.952358 -0.57226,1.503906 v 2.291016 c 0,0.697025 0.31675,1.345732 0.85742,1.779297 0.52463,2.077328 1.62212,3.642238 2.00586,4.144531 v 1.896484 c 0,0.554413 -0.30281,1.062374 -0.78907,1.328125 l -5.10937,2.78711 c -0.0616,0.03361 -0.11594,0.07547 -0.17578,0.111328 a 16.080509,16.080509 0 0 0 10.95898,4.339844 16.080509,16.080509 0 0 0 10.64258,-4.052735 c -0.19848,-0.136571 -0.4068,-0.260984 -0.62695,-0.371093 l -5.47266,-2.734376 c -0.51604,-0.258305 -0.83594,-0.778146 -0.83594,-1.355468 v -1.935547 c 0.13116,-0.160367 0.2695,-0.343317 0.41211,-0.544922 0.70963,-1.002295 1.27789,-2.118939 1.69141,-3.322266 0.80814,-0.370562 1.33203,-1.168246 1.33203,-2.070312 v -2.291016 c 0,-0.551548 -0.20571,-1.086378 -0.57226,-1.503906 V 67.25 c 0.0321,-0.315007 0.15898,-2.189357 -1.19727,-3.736328 -1.17641,-1.34193 -3.08642,-2.023438 -5.67578,-2.023438 z"
     transform="matrix(1.7459926,0,0,1.7459926,-266.5121,-107.36233)"
     id="path944"
     inkscape:connector-curvature="0" /><g
     id="g946"
     style="fill:#cb4f24;fill-opacity:1">
</g><g
     id="g948"
     style="fill:#cb4f24;fill-opacity:1">
</g><g
     id="g950"
     style="fill:#cb4f24;fill-opacity:1">
</g><g
     id="g952"
     style="fill:#cb4f24;fill-opacity:1">
</g><g
     id="g954"
     style="fill:#cb4f24;fill-opacity:1">
</g><g
     id="g956"
     style="fill:#cb4f24;fill-opacity:1">
</g><g
     id="g958"
     style="fill:#cb4f24;fill-opacity:1">
</g><g
     id="g960"
     style="fill:#cb4f24;fill-opacity:1">
</g><g
     id="g962"
     style="fill:#cb4f24;fill-opacity:1">
</g><g
     id="g964"
     style="fill:#cb4f24;fill-opacity:1">
</g><g
     id="g966"
     style="fill:#cb4f24;fill-opacity:1">
</g><g
     id="g968"
     style="fill:#cb4f24;fill-opacity:1">
</g><g
     id="g970"
     style="fill:#cb4f24;fill-opacity:1">
</g><g
     id="g972"
     style="fill:#cb4f24;fill-opacity:1">
</g><g
     id="g974"
     style="fill:#cb4f24;fill-opacity:1">
</g></g><g
   transform="translate(38.385162,70.412936)"
   id="g1118"><g
     id="g1088">
</g><g
     id="g1090">
</g><g
     id="g1092">
</g><g
     id="g1094">
</g><g
     id="g1096">
</g><g
     id="g1098">
</g><g
     id="g1100">
</g><g
     id="g1102">
</g><g
     id="g1104">
</g><g
     id="g1106">
</g><g
     id="g1108">
</g><g
     id="g1110">
</g><g
     id="g1112">
</g><g
     id="g1114">
</g><g
     id="g1116">
</g></g><g
   id="g1453"
   transform="scale(2.3240069)"
   style="fill:#00384e;fill-opacity:1"><path
     id="path1398"
     d="m 49,0 c -3.309,0 -6,2.691 -6,6 0,1.035 0.263,2.009 0.726,2.86 l -9.829,9.829 C 32.542,17.634 30.846,17 29,17 c -1.846,0 -3.542,0.634 -4.898,1.688 L 16.433,11.019 C 16.785,10.424 17,9.74 17,9 17,6.794 15.206,5 13,5 10.794,5 9,6.794 9,9 c 0,2.206 1.794,4 4,4 0.74,0 1.424,-0.215 2.019,-0.567 l 7.669,7.669 C 21.634,21.458 21,23.154 21,25 c 0,1.846 0.634,3.542 1.688,4.897 L 10.024,42.562 C 8.958,41.595 7.549,41 6,41 c -3.309,0 -6,2.691 -6,6 0,3.309 2.691,6 6,6 3.309,0 6,-2.691 6,-6 0,-1.035 -0.263,-2.009 -0.726,-2.86 L 24.103,31.311 c 1.106,0.86 2.44,1.436 3.898,1.619 v 10.16 c -2.833,0.478 -5,2.942 -5,5.91 0,3.309 2.691,6 6,6 3.309,0 6,-2.691 6,-6 0,-2.967 -2.167,-5.431 -5,-5.91 V 32.93 c 1.458,-0.183 2.792,-0.759 3.898,-1.619 l 7.669,7.669 C 41.215,39.576 41,40.26 41,41 c 0,2.206 1.794,4 4,4 2.206,0 4,-1.794 4,-4 0,-2.206 -1.794,-4 -4,-4 -0.74,0 -1.424,0.215 -2.019,0.567 L 35.312,29.898 C 36.366,28.542 37,26.846 37,25 37,23.154 36.366,21.458 35.312,20.103 l 9.665,-9.665 C 46.042,11.405 47.451,12 49,12 52.309,12 55,9.309 55,6 55,2.691 52.309,0 49,0 Z M 11,9 c 0,-1.103 0.897,-2 2,-2 1.103,0 2,0.897 2,2 0,1.103 -0.897,2 -2,2 -1.103,0 -2,-0.897 -2,-2 z M 6,51 c -2.206,0 -4,-1.794 -4,-4 0,-2.206 1.794,-4 4,-4 2.206,0 4,1.794 4,4 0,2.206 -1.794,4 -4,4 z m 27,-2 c 0,2.206 -1.794,4 -4,4 -2.206,0 -4,-1.794 -4,-4 0,-2.206 1.794,-4 4,-4 2.206,0 4,1.794 4,4 z M 29,31 c -3.309,0 -6,-2.691 -6,-6 0,-3.309 2.691,-6 6,-6 3.309,0 6,2.691 6,6 0,3.309 -2.691,6 -6,6 z m 18,10 c 0,1.103 -0.897,2 -2,2 -1.103,0 -2,-0.897 -2,-2 0,-1.103 0.897,-2 2,-2 1.103,0 2,0.897 2,2 z m 2,-31 c -2.206,0 -4,-1.794 -4,-4 0,-2.206 1.794,-4 4,-4 2.206,0 4,1.794 4,4 0,2.206 -1.794,4 -4,4 z"
     inkscape:connector-curvature="0"
     style="fill:#00384e;fill-opacity:1" /><g
     id="g1400"
     style="fill:#00384e;fill-opacity:1">
</g><g
     id="g1402"
     style="fill:#00384e;fill-opacity:1">
</g><g
     id="g1404"
     style="fill:#00384e;fill-opacity:1">
</g><g
     id="g1406"
     style="fill:#00384e;fill-opacity:1">
</g><g
     id="g1408"
     style="fill:#00384e;fill-opacity:1">
</g><g
     id="g1410"
     style="fill:#00384e;fill-opacity:1">
</g><g
     id="g1412"
     style="fill:#00384e;fill-opacity:1">
</g><g
     id="g1414"
     style="fill:#00384e;fill-opacity:1">
</g><g
     id="g1416"
     style="fill:#00384e;fill-opacity:1">
</g><g
     id="g1418"
     style="fill:#00384e;fill-opacity:1">
</g><g
     id="g1420"
     style="fill:#00384e;fill-opacity:1">
</g><g
     id="g1422"
     style="fill:#00384e;fill-opacity:1">
</g><g
     id="g1424"
     style="fill:#00384e;fill-opacity:1">
</g><g
     id="g1426"
     style="fill:#00384e;fill-opacity:1">
</g><g
     id="g1428"
     style="fill:#00384e;fill-opacity:1">
</g></g></svg>